<?xml version="1.0" encoding="UTF-8"?>
<!DOCTYPE svg PUBLIC "-//W3C//DTD SVG 1.1//EN" "http://www.w3.org/Graphics/SVG/1.1/DTD/svg11.dtd">
<svg xmlns="http://www.w3.org/2000/svg" version="1.1" width="64px" height="64px" style="shape-rendering:geometricPrecision; text-rendering:geometricPrecision; image-rendering:optimizeQuality; fill-rule:evenodd; clip-rule:evenodd" xmlns:xlink="http://www.w3.org/1999/xlink">
<g><path style="opacity:0.596" fill="#ffb100" d="M 29.5,13.5 C 30.8333,13.5 32.1667,13.5 33.5,13.5C 33.5,15.5 33.5,17.5 33.5,19.5C 32.1667,19.5 30.8333,19.5 29.5,19.5C 29.5,17.5 29.5,15.5 29.5,13.5 Z"/></g>
<g><path style="opacity:0.724" fill="#ffae00" d="M 21.5,15.5 C 25.485,15.6294 26.8183,17.4628 25.5,21C 22.0524,20.5838 20.7191,18.7505 21.5,15.5 Z"/></g>
<g><path style="opacity:0.728" fill="#ffae00" d="M 38.5,15.5 C 40.1033,15.3118 41.4366,15.8118 42.5,17C 41.6948,18.9717 40.3615,20.4717 38.5,21.5C 36.0006,19.6045 36.0006,17.6045 38.5,15.5 Z"/></g>
<g><path style="opacity:0.722" fill="#ffb500" d="M 16.5,20.5 C 19.8155,21.2646 21.1489,23.098 20.5,26C 16.2662,26.267 14.9329,24.4336 16.5,20.5 Z"/></g>
<g><path style="opacity:0.89" fill="#ffb300" d="M 26.5,21.5 C 38.3244,19.8236 43.1577,24.8236 41,36.5C 37.3449,41.2745 32.5116,42.7745 26.5,41C 20.6719,36.5181 19.5053,31.0181 23,24.5C 24.5185,23.8366 25.6851,22.8366 26.5,21.5 Z"/></g>
<g><path style="opacity:0.729" fill="#ffb500" d="M 45.5,20.5 C 47.2726,21.3143 47.7726,22.6476 47,24.5C 44.2805,27.3591 42.6138,27.0257 42,23.5C 43.1451,22.3636 44.3117,21.3636 45.5,20.5 Z"/></g>
<g><path style="opacity:1" fill="#ffef00" d="M 28.5,24.5 C 35.6545,24.1527 38.8212,27.486 38,34.5C 33.6667,39.8333 29.3333,39.8333 25,34.5C 24.3333,32.5 24.3333,30.5 25,28.5C 26.3756,27.2949 27.5423,25.9616 28.5,24.5 Z"/></g>
<g><path style="opacity:0.588" fill="#ffb100" d="M 13.5,29.5 C 15.5,29.5 17.5,29.5 19.5,29.5C 19.5,30.8333 19.5,32.1667 19.5,33.5C 17.5,33.5 15.5,33.5 13.5,33.5C 13.5,32.1667 13.5,30.8333 13.5,29.5 Z"/></g>
<g><path style="opacity:0.604" fill="#ffb100" d="M 43.5,29.5 C 45.5,29.5 47.5,29.5 49.5,29.5C 49.5,30.8333 49.5,32.1667 49.5,33.5C 47.5,33.5 45.5,33.5 43.5,33.5C 43.5,32.1667 43.5,30.8333 43.5,29.5 Z"/></g>
<g><path style="opacity:0.718" fill="#ffae00" d="M 17.5,36.5 C 19.3464,36.2222 20.6798,36.8888 21.5,38.5C 20.4717,40.3615 18.9717,41.6948 17,42.5C 15.0902,40.3733 15.2569,38.3733 17.5,36.5 Z"/></g>
<g><path style="opacity:0.725" fill="#ffae00" d="M 42.5,36.5 C 46.9949,36.7945 48.1615,38.7945 46,42.5C 42.6881,41.4269 41.5215,39.4269 42.5,36.5 Z"/></g>
<g><path style="opacity:0.718" fill="#ffae00" d="M 23.5,41.5 C 27.4757,43.4984 27.309,45.4984 23,47.5C 21.9412,47.3699 21.1079,46.8699 20.5,46C 21.3862,44.3853 22.3862,42.8853 23.5,41.5 Z"/></g>
<g><path style="opacity:0.723" fill="#ffb500" d="M 37.5,41.5 C 40.7655,42.2561 42.0988,44.0894 41.5,47C 37.2662,47.267 35.9329,45.4336 37.5,41.5 Z"/></g>
<g><path style="opacity:0.596" fill="#ffb100" d="M 29.5,43.5 C 30.8333,43.5 32.1667,43.5 33.5,43.5C 33.5,45.5 33.5,47.5 33.5,49.5C 32.1667,49.5 30.8333,49.5 29.5,49.5C 29.5,47.5 29.5,45.5 29.5,43.5 Z"/></g>
</svg>
